<svg width="1200" height="900" viewBox="0 0 1200 900" fill="none" xmlns="http://www.w3.org/2000/svg">
  <rect width="1200" height="900" rx="44" fill="#111827"/>
  <rect x="72" y="72" width="1056" height="756" rx="30" fill="#0F172A" stroke="#334155" stroke-width="2"/>
  <rect x="124" y="132" width="332" height="208" rx="24" fill="#1F2937"/>
  <rect x="500" y="132" width="576" height="312" rx="24" fill="#111827" stroke="#3B82F6" stroke-width="2"/>
  <rect x="124" y="376" width="952" height="280" rx="24" fill="#111827" stroke="#475569" stroke-width="2"/>
  <rect x="160" y="420" width="198" height="16" rx="8" fill="#F8FAFC"/>
  <rect x="160" y="452" width="182" height="12" rx="6" fill="#64748B"/>
  <rect x="160" y="478" width="150" height="12" rx="6" fill="#64748B"/>
  <rect x="618" y="188" width="164" height="18" rx="9" fill="#F8FAFC"/>
  <rect x="618" y="224" width="268" height="12" rx="6" fill="#64748B"/>
  <rect x="618" y="254" width="212" height="12" rx="6" fill="#64748B"/>
  <circle cx="904" cy="238" r="74" fill="#3B82F6" fill-opacity="0.18"/>
  <circle cx="904" cy="238" r="48" fill="#60A5FA" fill-opacity="0.4"/>
</svg>